<?xml version="1.0" encoding="utf-8"?>
<!-- Generator: Adobe Illustrator 22.0.1, SVG Export Plug-In . SVG Version: 6.00 Build 0)  -->
<svg version="1.1" id="Layer_1" xmlns="http://www.w3.org/2000/svg" xmlns:xlink="http://www.w3.org/1999/xlink" x="0px" y="0px"
	 viewBox="0 0 304.2 302.2" style="enable-background:new 0 0 304.2 302.2;" xml:space="preserve">
<style type="text/css">
	.st0{fill:#D8DFE5;}
	.st1{fill:#FFFFFF;}
</style>
<path class="st0" d="M250.1,291H51.5c-23.3,0-42.2-18.9-42.2-42.2V52.2C9.3,28.9,28.2,10,51.5,10h198.6c23.3,0,42.2,18.9,42.2,42.2
	v196.7C292.2,272.1,273.3,291,250.1,291z"/>
<path class="st1" d="M249.2,122.1h-68.7V53.8c0-2.9-2.3-5.2-5.2-5.2h-49.5c-2.9,0-5.2,2.3-5.2,5.2V122H52.3c-2.9,0-5.2,2.3-5.2,5.2
	v50.3c0,2.9,2.3,5.2,5.2,5.2h68.3v67.9c0,2.9,2.3,5.2,5.2,5.2h49.5c2.9,0,5.2-2.3,5.2-5.2v-67.9h68.7c2.9,0,5.2-2.3,5.2-5.2v-50.3
	C254.5,124.4,252.2,122.1,249.2,122.1z"/>
</svg>
