<?xml version="1.0" encoding="utf-8"?>
<!-- Generator: Adobe Illustrator 27.8.1, SVG Export Plug-In . SVG Version: 6.00 Build 0)  -->
<svg version="1.1" id="Layer_1" xmlns="http://www.w3.org/2000/svg" xmlns:xlink="http://www.w3.org/1999/xlink" x="0px" y="0px"
	 width="2571.6px" height="202px" viewBox="0 0 2571.6 202" style="enable-background:new 0 0 2571.6 202;" xml:space="preserve">
<style type="text/css">
	.st0{fill:#FFFFFF;}
	.st1{fill:#E04F29;}
</style>
<g>
	<path class="st0" d="M1515.4,4.1h51.4l46.1,121.2l46.9-120.4h50.6v189.3h-40.7V90.8c0-4.5,0.8-19.2,0.8-19.9l-6.2,19.9l-38.3,103.5
		h-27.6l-38.3-103.5c-1.5-4.5-5.4-18.4-6.2-19.9c0,1.5,0.8,16.1,0.8,19.9v103.5h-39.9V4.1h0.8H1515.4z"/>
	<path class="st0" d="M1742.5,4.1h44.5v33.8h-44.5V4.1z M1742.5,57.8h44.5v136.4h-44.5V57.8z"/>
	<path class="st0" d="M1861.4,125.9v68.3h-44.5V57.8h41.4l1.5,23.8c6.2-15.4,23-27.6,43.7-27.6v46c-22.3-8.4-42.2,2.3-42.2,26.1
		L1861.4,125.9z"/>
	<path class="st0" d="M1964.3,125.9v68.3h-44.5V57.8h41.4l1.5,23.8c6.2-15.4,23-27.6,43.7-27.6v46c-21.4-8.4-42.2,2.3-42.2,26.1
		L1964.3,125.9z"/>
	<path class="st0" d="M2116.8,194.2l-0.7-19.2c-10.7,16.1-29.1,22.9-43.7,22.9c-33,0-56.8-30-56.8-72.1c0-42.2,23.8-72.1,56.8-72.1
		c14.6,0,33,6.9,43.7,22.9l0.7-19.2h40.7v136.4h-40.7V194.2z M2087.7,88.4c-15.4,0-27.6,13.7-27.6,37.5c0,23.8,12.2,37.5,27.6,37.5
		s27.6-13.7,27.6-37.5C2115.3,102.2,2103.1,88.4,2087.7,88.4z"/>
	<path class="st0" d="M2188.3,57.8h41.4l1.5,24.6c7.7-18.4,26.8-28.3,42.9-28.3c33,0,45.2,25.3,45.2,59.1v81.3h-44.5v-72.8
		c0-22.3-5.4-30-18.4-30c-13.9,0-24.6,14.6-24.6,30.6v72.1h-43.7V57.8H2188.3z"/>
	<path class="st0" d="M2443.8,194.2l-0.8-19.2c-10.7,16.1-29.1,22.9-43.7,22.9c-33,0-56.8-30-56.8-72.1c0-42.2,23.8-72.1,56.8-72.1
		c14.6,0,33,6.9,43.7,22.9l0.8-19.2h40.7v136.4h-40.7V194.2z M2414.6,88.4c-15.4,0-27.6,13.7-27.6,37.5c0,23.8,12.2,37.5,27.6,37.5
		c15.4,0,27.6-13.7,27.6-37.5C2442.2,102.2,2430,88.4,2414.6,88.4z"/>
	<path class="st0" d="M2509.7,63.1h-8.4v-6.9h26.1v6.9h-8.4v23.8h-8.4V63.1h-0.8H2509.7z M2532,56.3h10l6.2,19.9l6.2-19.9h10v30.6
		h-7.7V67.7l-0.8,3.8l-5.4,15.4h-5.4l-5.4-15.4c0-0.8-0.8-3-0.8-3.8v19.2h-7.7V56.3h0.8H2532z"/>
	<path class="st0" d="M7.2,77.7h43v116.5h23V77.7h43V57.8H7.2V77.7z"/>
	<path class="st0" d="M468.3,57.8v102.8L387.7,57.8h-22.3v136.4h21.4V91.4l80.6,102.8h23V57.8h-22.3H468.3z"/>
	<path class="st0" d="M871.1,57.8l-45.2,69l-45.2-69h-21.4v136.4h21.4V96.1l36,53.7h19.2l35.3-54.4v98.9h22.3V57.8h-22.3H871.1z"/>
	<path class="st0" d="M228.9,175.1c9.2,0,17.6-2.3,24.6-6.9c7.7-4.5,13.1-10,17.6-17.6c8.4-14.6,8.4-35.3,0-49.9
		c-4.5-7.7-10-13.7-17.6-17.6c-14.6-8.4-34.5-8.4-49.1,0c-7.7,4.5-13.1,10-17.6,17.6c-8.4,14.6-8.4,35.3,0,49.9
		c4.5,7.7,10,13.7,17.6,17.6c7.7,3.8,15.4,6.9,24.6,6.9H228.9z M228.9,195.9c-13.1,0-25.3-3-36.8-9.2c-11.5-6.2-19.9-14.6-26.1-25.3
		c-13.1-20.7-13.1-49.9,0-70.5c6.2-10.7,15.4-19.2,26.1-25.3c21.4-12.2,52.1-12.2,73.7,0c10.7,6.2,19.9,14.6,26.1,25.3
		c13.1,20.7,13.1,49.9,0,70.5c-6.2,10.7-15.4,19.2-26.1,25.3C254.2,192.8,242,195.9,228.9,195.9z"/>
	<path class="st0" d="M624.7,175.1c9.2,0,17.6-2.3,24.6-6.9c6.9-4.5,13.1-10,17.6-17.6c8.4-14.6,8.4-35.3,0-49.9
		c-4.5-7.7-10-13.7-17.6-17.6c-14.6-8.4-34.5-8.4-49.1,0c-7.7,4.5-13.1,10-17.6,17.6c-8.4,14.6-8.4,35.3,0,49.9
		c4.5,7.7,10,13.7,17.6,17.6c7.7,3.8,15.4,6.9,24.6,6.9H624.7z M624.7,195.9c-13.1,0-25.3-3-36.8-9.2c-11.5-6.2-19.9-14.6-26.1-25.3
		c-13.1-20.7-13.1-49.9,0-70.5c6.2-10.7,15.4-19.2,26.1-25.3c21.4-12.2,52.1-12.2,73.7,0c10.7,6.2,19.9,14.6,26.1,25.3
		c13.1,20.7,13.1,49.9,0,70.5c-6.2,10.7-15.4,19.2-26.1,25.3C650,192.8,637.8,195.9,624.7,195.9z"/>
	<path class="st0" d="M1061.3,136c0,7.7-1.5,14.6-4.5,20.7c-3,6.2-7.7,10.7-13.1,13.7c-10.7,6.9-29.2,6.9-39.9,0
		c-6.2-3-10-7.7-13.7-13.7c-3-6.2-4.5-13.1-4.5-20.7V57.8h-23v79c0,11.5,2.3,22.3,7.7,30.6c5.4,9.2,12.2,16.1,21.4,20.7
		c17.6,10,46.1,10,63.6,0c9.2-4.5,16.1-12.2,21.5-20.7c5.4-9.2,7.7-19.2,7.7-30.6v-79h-23V136H1061.3z"/>
	<path class="st0" d="M1222.4,122.9c-5.4-3-12.2-6.2-21.4-8.4c-6.9-2.3-11.5-4.5-15.4-6.2c-9.2-3.8-16.9-14.6-10-23.8
		c1.5-2.3,3.8-3.8,6.9-5.4c9.2-3.8,19.2-1.5,28.3,1.5c6.2,2.3,11.5,6.2,16.1,10l10.7-18.4c-6.2-5.4-13.1-9.2-21.4-12.2
		c-14.6-5.4-33-6.9-46.7,0.8c-6.2,3-11.5,7.7-15.4,13.7c-7.7,10.7-7.7,30,0,39.8c3.8,5.4,8.4,9.2,13.8,12.2c5.4,3,12.2,5.4,21.4,8.4
		c6.2,2.3,11.6,3.8,15.4,5.4c3.8,1.5,6.9,3.8,9.2,6.9c4.5,5.4,5.4,13.7,0,19.2c-2.3,2.3-5.4,4.5-10,6.2c-11.5,3.8-26.1,3-36.8-2.3
		c-6.9-3-13.1-7.7-17.6-12.2l-8.4,19.9c5.4,5.4,13.1,10,21.4,13.1c23,8.4,57.6,6.9,72.2-15.4c7.7-11.5,8.4-30.6,0-40.7
		c-2.3-5.4-6.9-9.2-12.2-12.2H1222.4z"/>
	<path class="st1" d="M1447.2,57.8h-136.5v136.4h136.5V57.8z"/>
</g>
</svg>
