<svg width="86" height="24" viewBox="0 0 86 24" fill="none" xmlns="http://www.w3.org/2000/svg">
<path d="M62.1158 6.62614C63.9456 6.62614 65.4289 5.14283 65.4289 3.31307C65.4289 1.48331 63.9456 0 62.1158 0C60.286 0 58.8027 1.48331 58.8027 3.31307C58.8027 5.14283 60.286 6.62614 62.1158 6.62614Z" fill="#F49911"/>
<path d="M82.0299 23.9943C83.8596 23.9943 85.3429 22.511 85.3429 20.6812C85.3429 18.8515 83.8596 17.3682 82.0299 17.3682C80.2001 17.3682 78.7168 18.8515 78.7168 20.6812C78.7168 22.511 80.2001 23.9943 82.0299 23.9943Z" fill="#00A99F"/>
<path d="M57.9821 13.8174V23.6229H53.1371V14.9055C53.1371 13.1973 52.6265 12.2004 50.6569 12.2004C48.7481 12.2004 47.7815 13.1426 47.7815 15.3067V23.6289H42.9365V7.95112H47.7815V9.71404C48.9244 8.31586 50.3773 7.57422 52.3104 7.57422C55.8484 7.5803 57.9821 9.99975 57.9821 13.8174Z" fill="#002646"/>
<path d="M30.6196 7.95117L28.3643 17.4101L26.115 7.95117H20.3886L18.1333 17.4101L15.884 7.95117H11.0938L15.2579 23.6229H21.0147L23.2518 13.9025L25.4889 23.6229H31.2457L35.4038 7.95117H30.6196Z" fill="#002646"/>
<path d="M10.0669 18.7416L10.0608 18.7233C8.7234 19.1489 7.69605 19.4954 6.83891 19.4954C5.61094 19.4954 4.84499 18.7841 4.84499 17.2704V12.5106H10.1155V7.95129H4.84499V3.67773L0 4.72941V17.5562C0 22.2309 2.96657 23.9999 5.98176 23.9999C8.4073 23.9999 10.6018 22.9057 11.0638 22.4984L10.0669 18.7416Z" fill="#002646"/>
<path d="M76.3159 18.7416L76.3098 18.7233C74.9724 19.1489 73.9451 19.4954 73.0879 19.4954C71.86 19.4954 71.094 18.7841 71.094 17.2704V12.5106H76.3645V7.95129H71.094V3.67773L66.249 4.72941V17.5562C66.249 22.2309 69.2156 23.9999 72.2308 23.9999C74.6563 23.9999 76.8508 22.9057 77.3129 22.4984L76.3159 18.7416Z" fill="#002646"/>
<path d="M59.6963 7.95117H64.5413V23.6229H59.6963V7.95117Z" fill="#002646"/>
<path d="M41.2278 7.95117H36.3828V23.6229H41.2278V7.95117Z" fill="#002646"/>
<path d="M38.8082 6.62614C40.6379 6.62614 42.1213 5.14283 42.1213 3.31307C42.1213 1.48331 40.6379 0 38.8082 0C36.9784 0 35.4951 1.48331 35.4951 3.31307C35.4951 5.14283 36.9784 6.62614 38.8082 6.62614Z" fill="#E7217B"/>
<path d="M80.4494 7.93945L80.0725 8.39538L79.6895 7.93945H79.3916V9.16742H79.7503V8.5048L80.0481 8.85739H80.0846L80.3764 8.51088V9.16742H80.7412V7.93945H80.4494ZM78.1211 8.24948H78.4676V9.16742H78.8445V8.24948H79.1971V7.93945H78.1272V8.24948H78.1211Z" fill="#002646"/>
</svg>
