<svg id="Layer_1" data-name="Layer 1" xmlns="http://www.w3.org/2000/svg" viewBox="0 0 800 800"><defs><style>.cls-1{fill:#f2f2f2;}</style></defs><path class="cls-1" d="M400,169.19,599.89,284.6V515.4L400,630.81,200.11,515.4V284.6L400,169.19M400,100,140.19,250V550L400,700,659.81,550V250L400,100Z"/><polygon class="cls-1" points="400 384.62 531.4 308.76 400 232.89 268.59 308.76 400 384.62"/><polygon class="cls-1" points="544.72 316.45 544.72 316.44 544.72 316.44 544.72 316.45"/><polygon class="cls-1" points="386.68 407.69 255.28 331.82 255.28 483.56 386.68 559.42 386.68 407.69"/><polygon class="cls-1" points="413.31 407.69 413.31 559.42 544.72 483.56 544.72 331.82 413.31 407.69"/></svg>