<?xml version="1.0" encoding="utf-8"?>
<!-- Generator: Adobe Illustrator 24.0.1, SVG Export Plug-In . SVG Version: 6.00 Build 0)  -->
<svg version="1.1" id="Logo" xmlns="http://www.w3.org/2000/svg" xmlns:xlink="http://www.w3.org/1999/xlink" x="0px" y="0px"
	 viewBox="0 0 2565.4 512" style="enable-background:new 0 0 2565.4 512;" xml:space="preserve">
<style type="text/css">
	.st0{clip-path:url(#SVGID_2_);}
	.st1{clip-path:url(#SVGID_4_);}
	.st2{fill:url(#SVGID_5_);}
	.st3{clip-path:url(#SVGID_7_);}
	.st4{fill:url(#SVGID_8_);}
	.st5{clip-path:url(#SVGID_10_);}
	.st6{fill:url(#SVGID_11_);}
	.st7{clip-path:url(#SVGID_13_);}
	.st8{fill:#FFFFFF;}
</style>
<title>invicara-logo_white</title>
<g id="Invicara_Logo_Colour_White">
	<g>
		<defs>
			<rect id="SVGID_1_" x="2.7" width="2560" height="512"/>
		</defs>
		<clipPath id="SVGID_2_">
			<use xlink:href="#SVGID_1_"  style="overflow:visible;"/>
		</clipPath>
		<g class="st0">
			<g>
				<defs>
					<polygon id="SVGID_3_" points="288.7,227.6 288.7,500.7 446.2,409.8 446.2,136.6 					"/>
				</defs>
				<clipPath id="SVGID_4_">
					<use xlink:href="#SVGID_3_"  style="overflow:visible;"/>
				</clipPath>
				<g class="st1">
					
						<linearGradient id="SVGID_5_" gradientUnits="userSpaceOnUse" x1="2323.8003" y1="266.4277" x2="2328.9202" y2="266.4277" gradientTransform="matrix(0 71.32 -71.32 0 19369.043 -165600.3906)">
						<stop  offset="0" style="stop-color:#F13F24"/>
						<stop  offset="1" style="stop-color:#FB9900"/>
					</linearGradient>
					<rect x="288.7" y="136.6" class="st2" width="157.5" height="364"/>
				</g>
			</g>
			<g>
				<defs>
					<path id="SVGID_6_" d="M209.6,0l-2.9,1.7c-28.4,18.1-43.6,52.9-45.8,96c-0.8,19.7,0.7,39.4,4.4,58.7l123.4,71.2l157.5-91
						L209.6,0z"/>
				</defs>
				<clipPath id="SVGID_7_">
					<use xlink:href="#SVGID_6_"  style="overflow:visible;"/>
				</clipPath>
				<g class="st3">
					
						<linearGradient id="SVGID_8_" gradientUnits="userSpaceOnUse" x1="2349.0649" y1="224.4446" x2="2354.1851" y2="224.4446" gradientTransform="matrix(-61.5831 -35.555 35.555 -61.5831 137104.7188 97525.5781)">
						<stop  offset="0" style="stop-color:#6700B5"/>
						<stop  offset="1" style="stop-color:#FF267D"/>
					</linearGradient>
					<polygon class="st4" points="61.5,170.7 231.5,-123.9 544.7,56.9 374.6,351.5 					"/>
				</g>
			</g>
			<g>
				<defs>
					<path id="SVGID_9_" d="M55.7,88.9c-1.3,0.7-2.6,1.4-3.9,2.1C19.2,109.8,2.8,149.6,2.7,198.8v1.4c0.1,49.3,16.5,107.9,49,164.2
						c65.3,113.1,171.1,174,236.5,136.5l0.5-0.3V370.1l-0.5-0.4c-28.8-24.7-56.1-57.5-78.6-96.5c-22.6-39.1-37.4-79.4-44.3-116.8
						c-3.7-19.3-5.2-39-4.4-58.7c2.1-43,17.4-77.8,45.8-96L55.7,88.9z"/>
				</defs>
				<clipPath id="SVGID_10_">
					<use xlink:href="#SVGID_9_"  style="overflow:visible;"/>
				</clipPath>
				<g class="st5">
					
						<linearGradient id="SVGID_11_" gradientUnits="userSpaceOnUse" x1="2311.387" y1="258.9648" x2="2316.5071" y2="258.9648" gradientTransform="matrix(46.21 80.0381 -80.0381 46.21 -86040.1719 -196875.2656)">
						<stop  offset="0" style="stop-color:#00B3FF"/>
						<stop  offset="1" style="stop-color:#00A140"/>
					</linearGradient>
					<polygon class="st6" points="-229.7,135.9 217.2,-122.2 521.1,404.3 74.2,662.3 					"/>
				</g>
			</g>
			<g>
				<defs>
					<rect id="SVGID_12_" x="2.7" width="2560" height="512"/>
				</defs>
				<clipPath id="SVGID_13_">
					<use xlink:href="#SVGID_12_"  style="overflow:visible;"/>
				</clipPath>
				<g class="st7">
					<path class="st8" d="M716.1,18.1c16,0,30.3,12.1,30.3,29.2c0,16.5-13.8,29.8-30.3,29.8c-17.7,0-30.3-13.2-30.3-29.8
						C685.8,30.3,699.1,18.1,716.1,18.1 M693,135.6h46.9v275.6H693V135.6z"/>
					<path class="st8" d="M816.5,141.1l39.7-5.5l5,42.4c19.3-32.5,50.2-49.6,92.6-49.6c55.2,0,91.5,40.2,91.5,105.3v177.5h-46.9V242
						c0-43-17.6-71.1-54-71.1c-48,0-81,40.2-81,111.9v128.4h-46.9L816.5,141.1z"/>
					<path class="st8" d="M1088.5,135.6h48.5l56.8,162.6c6.6,18.2,13.8,44.6,19.8,67.8c6.6-23.2,13.8-49.6,20.4-67.8l56.8-162.6
						h48.5l-98.7,275.6h-53.5L1088.5,135.6z"/>
					<path class="st8" d="M1411.1,18.1c16,0,30.3,12.1,30.3,29.2c0,16.5-13.8,29.8-30.3,29.8c-17.6,0-30.3-13.2-30.3-29.8
						C1380.8,30.3,1394.1,18.1,1411.1,18.1 M1388,135.6h46.9v275.6H1388V135.6z"/>
					<path class="st8" d="M1734.8,399.1c-30.9,14.3-61.2,19.3-92.6,19.3c-89.9,0-143.9-66.1-143.9-145s53.5-145,143.9-145
						c31.4,0,62.3,6.6,93.2,19.9l-13.2,39.1c-27-10.5-52.9-16.5-79.4-16.5c-62.3,0-95.9,48.5-95.9,102.5s33.6,102.5,95.4,102.5
						c27,0,52.9-7.7,78.8-18.2L1734.8,399.1z"/>
					<path class="st8" d="M2002.9,370.4c-21,29.8-52.4,48-92.6,48c-78.3,0-129.6-67.3-129.6-145.5c0-77.7,52.9-144.5,129.6-144.5
						c38.6,0,68.9,17.1,89.3,43.6v-36.4l46.9,5.5v270.1h-38.6L2002.9,370.4z M2002.3,272.8c0-62.3-40.8-102-88.8-102
						c-47.4,0-84.3,41.3-84.3,102c0,59,35.3,103.1,84.3,103.1C1960.4,375.9,2002.3,336.8,2002.3,272.8"/>
					<path class="st8" d="M2123.8,141.1l39.7-5.5l5.5,44.7c18.2-30.3,48.5-51.8,94.8-51.8v42.5c-57.9,0-93.2,50.2-93.2,111.3v129
						h-46.9V141.1z"/>
					<path class="st8" d="M2519.1,370.4c-21,29.8-52.4,48-92.6,48c-78.3,0-129.5-67.3-129.5-145.5c0-77.7,52.9-144.5,129.5-144.5
						c38.6,0,68.9,17.1,89.3,43.6v-36.4l46.9,5.5v270.1h-38.6L2519.1,370.4z M2518.6,272.8c0-62.3-40.8-102-88.8-102
						c-47.4,0-84.4,41.3-84.4,102c0,59,35.3,103.1,84.4,103.1C2476.7,375.9,2518.6,336.8,2518.6,272.8"/>
				</g>
			</g>
		</g>
	</g>
</g>
</svg>
