<svg id="Layer_1" data-name="Layer 1" xmlns="http://www.w3.org/2000/svg" xmlns:xlink="http://www.w3.org/1999/xlink" viewBox="0 0 400 400"><defs><style>.cls-1{fill:none;}.cls-2{clip-path:url(#clip-path);}.cls-3{fill:#fff;}</style><clipPath id="clip-path"><rect class="cls-1" width="400" height="400"/></clipPath></defs><g class="cls-2"><g id="icon-intelligence"><g id="Group_184" data-name="Group 184"><g id="Group_183" data-name="Group 183"><path id="Path_198" data-name="Path 198" class="cls-3" d="M285.52,93.78l-22.22,8.88A67.17,67.17,0,0,0,248.41,94l-3.34-23.55a4.52,4.52,0,0,0-4.44-3.79H205.07a4.14,4.14,0,0,0-4.22,3.78L197.51,94a62.61,62.61,0,0,0-14.88,8.67l-22.22-8.88a4.28,4.28,0,0,0-5.34,2L137.3,126.44a4.45,4.45,0,0,0,1.11,5.78l18.89,14.66a36.66,36.66,0,0,0-1.12,8.66,57.24,57.24,0,0,0,.67,8.67l-18.67,14.68a4.22,4.22,0,0,0-1.11,5.55l17.78,30.89a4.57,4.57,0,0,0,5.55,2l22-8.89a63.54,63.54,0,0,0,15.11,8.66l3.11,23.56a4.53,4.53,0,0,0,4.45,3.77h35.55a4.51,4.51,0,0,0,4.45-3.77l3.34-23.56a62,62,0,0,0,14.89-8.66l22,8.89a4.07,4.07,0,0,0,5.33-2l17.78-30.89a4.17,4.17,0,0,0-1.11-5.55l-18.45-14.67a57,57,0,0,0,.66-8.66,52.29,52.29,0,0,0-.66-8.66l18.89-14.67a4.45,4.45,0,0,0,1.11-5.77L291.07,95.78A4.65,4.65,0,0,0,285.52,93.78Zm-62.66,93.55a31.78,31.78,0,1,1,31.77-31.78,31.78,31.78,0,0,1-31.77,31.78Z"/><path id="Path_199" data-name="Path 199" class="cls-3" d="M377.08,134.66A157,157,0,0,0,232,.22C228.86,0,226,0,222.86,0A155.45,155.45,0,0,0,69.08,133.34l-42.9,77.32a22.18,22.18,0,0,0,18.89,33.78H67.3v44.45a44.58,44.58,0,0,0,44.44,44.45H134V400H289.52V296A155.91,155.91,0,0,0,377.08,134.66ZM264.86,258.45l-19.78,9.33v87.77H178.41V288.89H111.74V200H82.86l29.55-51.78A110.9,110.9,0,1,1,264.86,258.45Z"/></g></g></g></g></svg>